<?xml version="1.0" standalone="no"?>
<!DOCTYPE svg PUBLIC "-//W3C//DTD SVG 20010904//EN"
 "http://www.w3.org/TR/2001/REC-SVG-20010904/DTD/svg10.dtd">
<svg version="1.0" xmlns="http://www.w3.org/2000/svg"
 width="900.000000pt" height="900.000000pt" viewBox="0 0 900.000000 900.000000"
 preserveAspectRatio="xMidYMid meet">
<metadata>
Created by potrace 1.14, written by Peter Selinger 2001-2017
</metadata>
<g transform="translate(0.000000,900.000000) scale(0.100000,-0.100000)"
fill="#000000" stroke="none">
<path d="M3119 8996 c-2 -2 -42 -6 -89 -10 -112 -8 -163 -15 -295 -37 -60 -11
-119 -21 -130 -23 -11 -2 -60 -13 -110 -25 -957 -235 -1635 -855 -1846 -1687
-15 -62 -31 -135 -35 -161 -3 -27 -8 -57 -10 -68 -26 -120 -25 -535 0 -695 11
-70 20 -127 21 -140 1 -8 10 -49 19 -90 10 -41 19 -91 22 -110 88 -715 763
-1204 1474 -1069 30 6 66 12 80 15 55 11 179 58 255 96 366 185 621 539 673
933 9 65 8 255 0 325 -42 327 -249 654 -535 843 -141 94 -252 142 -432 188
-40 10 -115 38 -166 63 -281 133 -411 310 -358 488 46 157 231 347 423 435
168 78 380 142 525 160 101 13 324 7 412 -10 115 -23 302 -99 418 -170 519
-318 935 -777 1188 -1307 89 -186 185 -458 216 -610 6 -30 14 -66 16 -80 19
-89 32 -168 42 -265 10 -91 10 -487 0 -590 -13 -133 -14 -139 -20 -180 -4 -22
-9 -58 -12 -80 -3 -23 -7 -50 -9 -60 -2 -11 -7 -40 -11 -65 -10 -64 -11 -67
-35 -176 -12 -55 -23 -106 -25 -115 -8 -40 -68 -263 -91 -339 -204 -678 -524
-1348 -883 -1850 -84 -117 -83 -115 -166 -214 -73 -87 -57 -70 -191 -207 -143
-146 -243 -241 -385 -364 -63 -54 -127 -109 -143 -123 -16 -14 -95 -77 -175
-139 -80 -63 -153 -120 -161 -126 -8 -7 -40 -30 -70 -52 -30 -22 -59 -43 -65
-48 -66 -53 -545 -378 -733 -497 -483 -305 -696 -450 -758 -517 -48 -50 -59
-84 -40 -122 39 -75 187 -57 502 60 267 99 840 373 1036 496 21 13 40 23 42
23 12 0 408 243 561 344 356 235 699 497 948 726 108 98 309 305 472 484 183
201 421 478 490 571 17 22 36 47 44 55 38 40 290 386 383 526 206 311 338 547
464 832 140 315 253 684 298 972 43 279 51 386 51 670 0 202 -10 433 -19 448
-2 4 -7 32 -10 63 -4 31 -9 66 -11 78 -10 45 -15 67 -20 96 -23 119 -71 292
-116 423 -159 450 -405 846 -734 1178 -368 371 -780 613 -1265 743 -42 11 -91
23 -110 26 -19 3 -42 8 -50 10 -8 2 -32 6 -54 10 -21 3 -41 7 -45 9 -3 2 -37
7 -74 11 -37 3 -78 9 -90 12 -24 5 -493 14 -498 9z"/>
<path d="M7250 8110 c-200 -45 -354 -123 -494 -251 -134 -122 -244 -316 -272
-476 -3 -15 -7 -36 -10 -45 -7 -23 -6 -216 0 -248 3 -14 8 -36 11 -50 3 -14 7
-35 9 -46 6 -30 55 -152 79 -194 71 -128 180 -244 310 -330 269 -178 601 -221
918 -120 266 85 503 304 599 552 l31 81 -3 246 c-3 245 -3 246 -31 311 -40 89
-129 221 -196 289 -141 143 -318 236 -546 287 -16 4 -97 8 -180 9 -112 2 -169
-2 -225 -15z"/>
<path d="M7340 5679 c-19 -4 -53 -9 -75 -12 -113 -15 -276 -83 -400 -167 -194
-131 -354 -371 -381 -569 -3 -25 -8 -50 -11 -54 -3 -5 -5 -54 -5 -111 1 -237
89 -443 261 -616 272 -274 678 -368 1066 -247 278 86 515 306 613 570 20 53
22 77 22 292 0 226 -1 237 -25 301 -116 307 -397 535 -741 600 -94 17 -266 24
-324 13z"/>
</g>
</svg>
